<svg width="32" height="32" viewBox="0 0 32 32" fill="none" xmlns="http://www.w3.org/2000/svg">
<path d="M19.1343 2.66699H12.8677C11.481 2.66699 10.3477 3.78699 10.3477 5.17366V6.42699C10.3477 7.81366 11.4677 8.93366 12.8543 8.93366H19.1343C20.521 8.93366 21.641 7.81366 21.641 6.42699V5.17366C21.6543 3.78699 20.521 2.66699 19.1343 2.66699Z" fill="#CFCFCF"/>
<path d="M22.9867 6.42762C22.9867 8.54762 21.2534 10.2809 19.1334 10.2809H12.8667C10.7467 10.2809 9.01339 8.54762 9.01339 6.42762C9.01339 5.68095 8.21339 5.21428 7.54672 5.56095C5.66672 6.56095 4.38672 8.54762 4.38672 10.8276V23.3743C4.38672 26.6543 7.06672 29.3343 10.3467 29.3343H21.6534C24.9334 29.3343 27.6134 26.6543 27.6134 23.3743V10.8276C27.6134 8.54762 26.3334 6.56095 24.4534 5.56095C23.7867 5.21428 22.9867 5.68095 22.9867 6.42762ZM16.5067 22.601H10.6667C10.1201 22.601 9.66672 22.1476 9.66672 21.601C9.66672 21.0543 10.1201 20.601 10.6667 20.601H16.5067C17.0534 20.601 17.5067 21.0543 17.5067 21.601C17.5067 22.1476 17.0534 22.601 16.5067 22.601ZM20.0001 17.2676H10.6667C10.1201 17.2676 9.66672 16.8143 9.66672 16.2676C9.66672 15.721 10.1201 15.2676 10.6667 15.2676H20.0001C20.5467 15.2676 21.0001 15.721 21.0001 16.2676C21.0001 16.8143 20.5467 17.2676 20.0001 17.2676Z" fill="#CFCFCF"/>
</svg>
