<svg width="15" height="15" viewBox="0 0 15 15" fill="none" xmlns="http://www.w3.org/2000/svg">
<path d="M5.39329 5.33332C5.55003 4.88777 5.85939 4.51206 6.2666 4.27274C6.6738 4.03343 7.15256 3.94595 7.61808 4.0258C8.0836 4.10565 8.50584 4.34767 8.81001 4.70901C9.11418 5.07034 9.28066 5.52767 9.27996 5.99999C9.27996 7.33332 7.27996 7.99999 7.27996 7.99999M7.33329 10.6667H7.33996M14 7.33332C14 11.0152 11.0152 14 7.33329 14C3.65139 14 0.666626 11.0152 0.666626 7.33332C0.666626 3.65142 3.65139 0.666656 7.33329 0.666656C11.0152 0.666656 14 3.65142 14 7.33332Z" stroke="white" stroke-width="1.33333" stroke-linecap="round" stroke-linejoin="round"/>
</svg>
