<svg width="106" height="106" viewBox="0 0 106 106" fill="none" xmlns="http://www.w3.org/2000/svg">
<rect width="106" height="106" rx="20" fill="#0E110D"/>
<path d="M88.7266 75.6826C88.7266 76.9726 88.44 78.2984 87.8308 79.5884C87.2216 80.8784 86.4333 82.0968 85.3941 83.2434C83.6383 85.1784 81.7033 86.5759 79.5175 87.4718C77.3675 88.3676 75.0383 88.8334 72.53 88.8334C68.875 88.8334 64.9691 87.9734 60.8483 86.2176C56.7275 84.4618 52.6066 82.0968 48.5216 79.1226C44.4008 76.1126 40.495 72.7801 36.7683 69.0892C33.0775 65.3626 29.745 61.4568 26.7708 57.3717C23.8325 53.2868 21.4675 49.2018 19.7475 45.1526C18.0275 41.0676 17.1675 37.1617 17.1675 33.4351C17.1675 30.9984 17.5975 28.6692 18.4575 26.5192C19.3175 24.3334 20.6791 22.3267 22.5783 20.5351C24.8716 18.2776 27.38 17.1667 30.0316 17.1667C31.035 17.1667 32.0383 17.3817 32.9341 17.8117C33.8658 18.2417 34.69 18.8867 35.335 19.8184L43.6483 31.5359C44.2933 32.4317 44.7591 33.2559 45.0816 34.0442C45.4041 34.7967 45.5833 35.5492 45.5833 36.2301C45.5833 37.0901 45.3325 37.9501 44.8308 38.7742C44.365 39.5984 43.6841 40.4584 42.8241 41.3184L40.1008 44.1492C39.7066 44.5434 39.5275 45.0093 39.5275 45.5826C39.5275 45.8693 39.5633 46.1201 39.635 46.4067C39.7425 46.6934 39.85 46.9084 39.9216 47.1234C40.5666 48.3059 41.6775 49.8468 43.2541 51.7101C44.8666 53.5734 46.5866 55.4726 48.45 57.3717C50.385 59.2709 52.2483 61.0267 54.1475 62.6392C56.0108 64.2159 57.5516 65.2909 58.77 65.9359C58.9491 66.0076 59.1641 66.1151 59.415 66.2226C59.7016 66.3301 59.9883 66.3659 60.3108 66.3659C60.92 66.3659 61.3858 66.1509 61.78 65.7568L64.5033 63.0693C65.3991 62.1734 66.2591 61.4926 67.0833 61.0626C67.9075 60.5609 68.7316 60.3101 69.6275 60.3101C70.3083 60.3101 71.025 60.4534 71.8133 60.7759C72.6016 61.0984 73.4258 61.5643 74.3216 62.1734L86.1825 70.5942C87.1141 71.2393 87.7591 71.9917 88.1533 72.8876C88.5116 73.7834 88.7266 74.6792 88.7266 75.6826Z" fill="url(#paint0_linear_883_168)"/>
<defs>
<linearGradient id="paint0_linear_883_168" x1="17.1675" y1="53.0001" x2="88.7266" y2="53.0001" gradientUnits="userSpaceOnUse">
<stop stop-color="#107F8C"/>
<stop offset="1" stop-color="#31C2A7"/>
</linearGradient>
</defs>
</svg>
