<svg width="376" height="105" viewBox="0 0 376 105" fill="none" xmlns="http://www.w3.org/2000/svg">
<g clip-path="url(#clip0_2005_1089)">
<path d="M369.822 19.6321V18.5888H242.6L233.786 9.76978H203.452L196.29 16.93H0.00012207V17.9733H196.724L203.886 10.813H233.359L242.173 19.6321H369.822Z" fill="#161A26"/>
<path d="M282.589 31.71V30.6667H183.357L167.788 46.2508H122.035L107.8 32.0016H-0.000213623V33.0448H107.366L121.601 47.2875H168.216L183.791 31.71H282.589Z" fill="#161A26"/>
<path d="M126.335 30.6667H164.531V31.71H126.335V30.6667Z" fill="#161A26"/>
<path d="M256.303 75.7796V74.7364H141.133L112.658 46.251H-3.05176e-05V47.2878H112.23L140.699 75.7796H256.303Z" fill="#161A26"/>
<path d="M333.284 47.2361V46.1929H198.984L184.691 60.4939H154.111V61.5371H185.125L199.417 47.2361H333.284Z" fill="#161A26"/>
<path d="M195.085 86.2446V85.2013H133.795L106.408 57.7981H88.0097L71.949 73.8681H46.8608L33.4942 60.4937H-6.10352e-05V61.537H33.0602L46.4268 74.9114H72.3829L88.4436 58.8414H105.981L133.368 86.2446H195.085Z" fill="#161A26"/>
<path d="M100.055 73.2848L99.3169 72.5461L82.369 89.5039H40.6114L25.8524 74.7363H-3.05176e-05V75.7796H25.4185L40.1775 90.5471H82.7965L100.055 73.2848Z" fill="#161A26"/>
<path d="M227.724 101.932V100.895H132.008L117.521 86.3997H107.865L93.4753 100.791H-0.000289917V101.835H93.9091L108.299 87.4429H117.087L131.574 101.932H227.724Z" fill="#161A26"/>
<path d="M-9.15527e-05 2.55737H267.312V3.60063H-9.15527e-05V2.55737Z" fill="#161A26"/>
<path d="M233.235 101.595C233.235 99.9297 231.882 98.5754 230.218 98.5754C228.553 98.5754 227.2 99.9297 227.2 101.595C227.2 103.26 228.553 104.615 230.218 104.615C231.882 104.615 233.235 103.26 233.235 101.595ZM228.242 101.595C228.242 100.506 229.13 99.6187 230.218 99.6187C231.305 99.6187 232.193 100.506 232.193 101.595C232.193 102.684 231.305 103.571 230.218 103.571C229.13 103.571 228.242 102.684 228.242 101.595Z" fill="#161A26"/>
<path d="M200.596 85.7259C200.596 84.0606 199.243 82.7063 197.578 82.7063C195.914 82.7063 194.56 84.0606 194.56 85.7259C194.56 87.3912 195.914 88.7455 197.578 88.7455C199.243 88.7455 200.596 87.3912 200.596 85.7259ZM195.603 85.7259C195.603 84.6373 196.49 83.7495 197.578 83.7495C198.666 83.7495 199.554 84.6373 199.554 85.7259C199.554 86.8145 198.666 87.7023 197.578 87.7023C196.49 87.7023 195.603 86.8145 195.603 85.7259Z" fill="#161A26"/>
<path d="M261.814 75.2613C261.814 73.596 260.46 72.2417 258.796 72.2417C257.132 72.2417 255.778 73.596 255.778 75.2613C255.778 76.9266 257.132 78.2809 258.796 78.2809C260.46 78.2809 261.814 76.9266 261.814 75.2613ZM256.821 75.2613C256.821 74.1727 257.708 73.285 258.796 73.285C259.884 73.285 260.771 74.1727 260.771 75.2613C260.771 76.3499 259.884 77.2377 258.796 77.2377C257.708 77.2377 256.821 76.3499 256.821 75.2613Z" fill="#161A26"/>
<path d="M288.101 31.1851C288.101 29.5198 286.747 28.1655 285.083 28.1655C283.418 28.1655 282.065 29.5198 282.065 31.1851C282.065 32.8505 283.418 34.2047 285.083 34.2047C286.747 34.2047 288.101 32.8505 288.101 31.1851ZM283.108 31.1851C283.108 30.0965 283.995 29.2088 285.083 29.2088C286.171 29.2088 287.058 30.0965 287.058 31.1851C287.058 32.2737 286.171 33.1615 285.083 33.1615C283.995 33.1615 283.108 32.2737 283.108 31.1851Z" fill="#161A26"/>
<path d="M272.824 3.07576C272.824 1.41044 271.47 0.0561523 269.806 0.0561523C268.142 0.0561523 266.788 1.41044 266.788 3.07576C266.788 4.74108 268.142 6.09537 269.806 6.09537C271.47 6.09537 272.824 4.74108 272.824 3.07576ZM267.831 3.07576C267.831 1.98715 268.718 1.09941 269.806 1.09941C270.894 1.09941 271.781 1.98715 271.781 3.07576C271.781 4.16437 270.894 5.05211 269.806 5.05211C268.718 5.05211 267.831 4.16437 267.831 3.07576Z" fill="#161A26"/>
<path d="M338.795 46.7691C338.795 45.1038 337.442 43.7495 335.778 43.7495C334.113 43.7495 332.76 45.1038 332.76 46.7691C332.76 48.4344 334.113 49.7887 335.778 49.7887C337.442 49.7887 338.795 48.4344 338.795 46.7691ZM333.802 46.7691C333.802 45.6805 334.69 44.7928 335.778 44.7928C336.866 44.7928 337.753 45.6805 337.753 46.7691C337.753 47.8577 336.866 48.7455 335.778 48.7455C334.69 48.7455 333.802 47.8577 333.802 46.7691Z" fill="#161A26"/>
<path d="M100.813 69.5266C99.4335 69.5266 98.3196 70.6476 98.3196 72.0214C98.3196 73.3951 99.4399 74.5161 100.813 74.5161C102.186 74.5161 103.306 73.3951 103.306 72.0214C103.306 70.6476 102.186 69.5266 100.813 69.5266Z" fill="#161A26"/>
<path d="M103.831 72.0213C103.831 70.356 102.477 69.0017 100.813 69.0017C99.1484 69.0017 97.7949 70.356 97.7949 72.0213C97.7949 73.6866 99.1484 75.0409 100.813 75.0409C102.477 75.0409 103.831 73.6866 103.831 72.0213ZM98.8375 72.0213C98.8375 70.9327 99.7247 70.045 100.813 70.045C101.901 70.045 102.788 70.9327 102.788 72.0213C102.788 73.1099 101.901 73.9977 100.813 73.9977C99.7247 73.9977 98.8375 73.1099 98.8375 72.0213Z" fill="#161A26"/>
<path d="M153.068 58.5171C151.689 58.5171 150.575 59.6381 150.575 61.0118C150.575 62.3855 151.695 63.5066 153.068 63.5066C154.441 63.5066 155.562 62.3855 155.562 61.0118C155.562 59.6381 154.441 58.5171 153.068 58.5171Z" fill="#161A26"/>
<path d="M156.086 61.0118C156.086 59.3465 154.732 57.9922 153.068 57.9922C151.404 57.9922 150.05 59.3465 150.05 61.0118C150.05 62.6771 151.404 64.0314 153.068 64.0314C154.732 64.0314 156.086 62.6771 156.086 61.0118ZM151.093 61.0118C151.093 59.9232 151.98 59.0354 153.068 59.0354C154.156 59.0354 155.043 59.9232 155.043 61.0118C155.043 62.1004 154.156 62.9881 153.068 62.9881C151.98 62.9881 151.093 62.1004 151.093 61.0118Z" fill="#161A26"/>
<path d="M165.742 28.6904C164.363 28.6904 163.249 29.8114 163.249 31.1852C163.249 32.5589 164.369 33.6799 165.742 33.6799C167.115 33.6799 168.235 32.5589 168.235 31.1852C168.235 29.8114 167.115 28.6904 165.742 28.6904Z" fill="#161A26"/>
<path d="M168.76 31.1851C168.76 29.5198 167.406 28.1655 165.742 28.1655C164.078 28.1655 162.724 29.5198 162.724 31.1851C162.724 32.8505 164.078 34.2047 165.742 34.2047C167.406 34.2047 168.76 32.8505 168.76 31.1851ZM163.767 31.1851C163.767 30.0965 164.654 29.2088 165.742 29.2088C166.83 29.2088 167.717 30.0965 167.717 31.1851C167.717 32.2737 166.83 33.1615 165.742 33.1615C164.654 33.1615 163.767 32.2737 163.767 31.1851Z" fill="#161A26"/>
<path d="M372.315 16.6118C370.936 16.6118 369.822 17.7328 369.822 19.1066C369.822 20.4803 370.942 21.6013 372.315 21.6013C373.688 21.6013 374.809 20.4803 374.809 19.1066C374.809 17.7328 373.688 16.6118 372.315 16.6118Z" fill="#161A26"/>
<path d="M375.333 19.1065C375.333 17.4412 373.98 16.0869 372.315 16.0869C370.651 16.0869 369.298 17.4412 369.298 19.1065C369.298 20.7718 370.651 22.1261 372.315 22.1261C373.98 22.1261 375.333 20.7718 375.333 19.1065ZM370.34 19.1065C370.34 18.0179 371.227 17.1302 372.315 17.1302C373.403 17.1302 374.291 18.0179 374.291 19.1065C374.291 20.1951 373.403 21.0829 372.315 21.0829C371.227 21.0829 370.34 20.1951 370.34 19.1065Z" fill="#161A26"/>
<path d="M126.335 33.6799C124.958 33.6799 123.842 32.563 123.842 31.1852C123.842 29.8074 124.958 28.6904 126.335 28.6904C127.712 28.6904 128.829 29.8074 128.829 31.1852C128.829 32.563 127.712 33.6799 126.335 33.6799Z" fill="#161A26"/>
<path d="M129.353 31.1851C129.353 29.5198 128 28.1655 126.335 28.1655C124.671 28.1655 123.317 29.5198 123.317 31.1851C123.317 32.8505 124.671 34.2047 126.335 34.2047C128 34.2047 129.353 32.8505 129.353 31.1851ZM124.36 31.1851C124.36 30.0965 125.247 29.2088 126.335 29.2088C127.423 29.2088 128.31 30.0965 128.31 31.1851C128.31 32.2737 127.423 33.1615 126.335 33.1615C125.247 33.1615 124.36 32.2737 124.36 31.1851Z" fill="#161A26"/>
<path d="M0 3.07628H20.4458V103.195H0V3.07628Z" fill="#161A26"/>
<path d="M46.4036 3.07628H83.1291C93.8541 3.07628 103.169 4.22929 111.074 6.53529C118.979 8.8413 125.516 12.1509 130.686 16.4639C135.899 20.7343 139.766 25.9442 142.287 32.0936C144.851 38.2002 146.133 45.0755 146.133 52.7195C146.133 59.9792 144.872 66.705 142.351 72.8971C139.83 79.0464 135.985 84.3844 130.815 88.911C125.644 93.3949 119.107 96.918 111.202 99.4802C103.297 102 93.9822 103.26 83.2573 103.26L46.4036 103.195V3.07628ZM88.1284 85.6442C94.1959 85.6442 99.5156 84.8755 104.088 83.3382C108.66 81.7581 112.462 79.5375 115.496 76.6764C118.573 73.8152 120.88 70.3562 122.418 66.2993C123.957 62.2425 124.726 57.7159 124.726 52.7195C124.726 47.8086 123.957 43.3887 122.418 39.46C120.88 35.4885 118.573 32.1363 115.496 29.4032C112.462 26.6275 108.66 24.4923 104.088 22.9976C99.5156 21.503 94.1959 20.7557 88.1284 20.7557H66.7212V85.6442H88.1284Z" fill="#161A26"/>
<path d="M171.193 73.4095C174.825 75.4593 178.5 77.3169 182.217 78.9824C185.978 80.6051 189.866 81.993 193.882 83.146C197.899 84.2563 202.108 85.1104 206.509 85.7082C210.953 86.3061 215.674 86.605 220.673 86.605C226.698 86.605 231.826 86.2207 236.056 85.452C240.286 84.6406 243.726 83.5517 246.375 82.1852C249.067 80.776 251.011 79.1105 252.207 77.1888C253.447 75.2672 254.066 73.1747 254.066 70.9114C254.066 67.2815 252.549 64.4204 249.515 62.3279C246.482 60.1927 241.803 59.1251 235.479 59.1251C232.702 59.1251 229.775 59.3173 226.698 59.7016C223.622 60.0432 220.503 60.4276 217.341 60.8546C214.221 61.2816 211.124 61.6873 208.047 62.0717C205.013 62.4133 202.15 62.5841 199.459 62.5841C194.972 62.5841 190.656 62.0076 186.512 60.8546C182.41 59.7016 178.756 57.9721 175.552 55.6661C172.39 53.3601 169.869 50.4776 167.989 47.0186C166.109 43.5595 165.169 39.524 165.169 34.912C165.169 32.179 165.532 29.4673 166.258 26.7769C167.027 24.0866 168.224 21.5243 169.847 19.0902C171.514 16.6134 173.65 14.3287 176.257 12.2363C178.863 10.1011 182.004 8.2648 185.678 6.72746C189.396 5.19012 193.669 3.99441 198.497 3.14034C203.368 2.24356 208.902 1.79517 215.097 1.79517C219.584 1.79517 224.092 2.05139 228.621 2.56384C233.15 3.03358 237.551 3.71684 241.824 4.61362C246.14 5.5104 250.285 6.59935 254.258 7.88047C258.232 9.11888 261.928 10.5068 265.347 12.0441L256.438 28.4424C253.617 27.204 250.584 26.0723 247.336 25.0474C244.089 23.9798 240.692 23.0617 237.145 22.293C233.599 21.5243 229.924 20.9265 226.121 20.4995C222.361 20.0297 218.516 19.7948 214.585 19.7948C208.987 19.7948 204.372 20.2005 200.74 21.0119C197.151 21.8233 194.288 22.8695 192.152 24.1506C190.015 25.389 188.52 26.7983 187.665 28.3783C186.854 29.9157 186.448 31.453 186.448 32.9903C186.448 35.9796 187.794 38.4351 190.486 40.3567C193.177 42.2357 197.279 43.1752 202.791 43.1752C205.013 43.1752 207.556 43.0257 210.419 42.7268C213.324 42.3852 216.358 42.0222 219.52 41.6379C222.724 41.2535 225.972 40.9119 229.262 40.613C232.595 40.2713 235.821 40.1005 238.94 40.1005C244.837 40.1005 250.05 40.7624 254.579 42.0863C259.151 43.4101 262.975 45.3104 266.052 47.7872C269.128 50.2213 271.457 53.1893 273.038 56.691C274.619 60.15 275.409 64.036 275.409 68.3491C275.409 74.1142 274.063 79.26 271.371 83.7866C268.722 88.2705 264.919 92.0711 259.963 95.1885C255.049 98.2632 249.11 100.612 242.145 102.235C235.18 103.815 227.425 104.605 218.879 104.605C213.239 104.605 207.727 104.242 202.343 103.516C196.959 102.832 191.789 101.85 186.832 100.569C181.918 99.2454 177.218 97.6867 172.732 95.8931C168.288 94.0569 164.164 92.0498 160.362 89.8719L171.193 73.4095Z" fill="#161A26"/>
</g>
<defs>
<clipPath id="clip0_2005_1089">
<rect width="375.333" height="104.829" fill="white"/>
</clipPath>
</defs>
</svg>
