<svg width="32" height="32" viewBox="0 0 32 32" fill="none" xmlns="http://www.w3.org/2000/svg">
<path d="M21.587 2.66663H10.4137C5.56033 2.66663 2.66699 5.55996 2.66699 10.4133V21.5733C2.66699 26.44 5.56033 29.3333 10.4137 29.3333H21.5737C26.427 29.3333 29.3203 26.44 29.3203 21.5866V10.4133C29.3337 5.55996 26.4403 2.66663 21.587 2.66663ZM14.6003 23.3466C14.2137 23.7333 13.4803 24.1066 12.947 24.1866L9.66699 24.6533C9.54699 24.6666 9.42699 24.68 9.30699 24.68C8.76033 24.68 8.25366 24.4933 7.89366 24.1333C7.45366 23.6933 7.26699 23.0533 7.37366 22.3466L7.84033 19.0666C7.92033 18.52 8.28033 17.8 8.68033 17.4133L14.627 11.4666C14.7337 11.7466 14.8403 12.0266 14.987 12.3466C15.1203 12.6266 15.267 12.92 15.427 13.1866C15.5603 13.4133 15.707 13.6266 15.827 13.7866C15.9737 14.0133 16.147 14.2266 16.2537 14.3466C16.3203 14.44 16.3737 14.5066 16.4003 14.5333C16.7337 14.9333 17.1203 15.3066 17.4537 15.5866C17.547 15.68 17.6003 15.7333 17.627 15.7466C17.827 15.9066 18.027 16.0666 18.2003 16.1866C18.4137 16.3466 18.627 16.4933 18.8537 16.6133C19.1203 16.7733 19.4137 16.92 19.707 17.0666C20.0137 17.2 20.2937 17.32 20.5737 17.4133L14.6003 23.3466ZM23.1603 14.7866L21.9337 16.0266C21.8537 16.1066 21.747 16.1466 21.6403 16.1466C21.6003 16.1466 21.547 16.1466 21.5203 16.1333C18.8137 15.36 16.6537 13.2 15.8803 10.4933C15.8403 10.3466 15.8803 10.1866 15.987 10.0933L17.227 8.85329C19.2537 6.82663 21.187 6.86663 23.1737 8.85329C24.187 9.86663 24.6803 10.84 24.6803 11.8533C24.667 12.8133 24.1737 13.7733 23.1603 14.7866Z" fill="#2A00D3"/>
</svg>
