<svg width="18" height="18" viewBox="0 0 18 18" fill="none" xmlns="http://www.w3.org/2000/svg">
<path d="M9.00098 1.50018C7.03598 1.50018 5.43848 3.09768 5.43848 5.06268C5.43848 6.99018 6.94598 8.55018 8.91098 8.61768C8.97098 8.61018 9.03098 8.61018 9.07598 8.61768C9.09098 8.61768 9.09848 8.61768 9.11348 8.61768C9.12098 8.61768 9.12098 8.61768 9.12848 8.61768C11.0485 8.55018 12.556 6.99018 12.5635 5.06268C12.5635 3.09768 10.966 1.50018 9.00098 1.50018Z" fill="url(#paint0_linear_1809_298)"/>
<path d="M12.8102 10.6125C10.7177 9.2175 7.30521 9.2175 5.19771 10.6125C4.24521 11.25 3.72021 12.1125 3.72021 13.035C3.72021 13.9575 4.24521 14.8125 5.19021 15.4425C6.24022 16.1475 7.62022 16.5 9.00022 16.5C10.3802 16.5 11.7602 16.1475 12.8102 15.4425C13.7552 14.805 14.2802 13.95 14.2802 13.02C14.2727 12.0975 13.7552 11.2425 12.8102 10.6125Z" fill="url(#paint1_linear_1809_298)"/>
<defs>
<linearGradient id="paint0_linear_1809_298" x1="5.43848" y1="5.05894" x2="12.5635" y2="5.05894" gradientUnits="userSpaceOnUse">
<stop stop-color="#107F8C"/>
<stop offset="1" stop-color="#31C2A7"/>
</linearGradient>
<linearGradient id="paint1_linear_1809_298" x1="3.72021" y1="13.0331" x2="14.2802" y2="13.0331" gradientUnits="userSpaceOnUse">
<stop stop-color="#107F8C"/>
<stop offset="1" stop-color="#31C2A7"/>
</linearGradient>
</defs>
</svg>
