<svg width="32" height="32" viewBox="0 0 32 32" fill="none" xmlns="http://www.w3.org/2000/svg">
<path d="M21.587 2.66663H10.4137C5.56033 2.66663 2.66699 5.55996 2.66699 10.4133V21.5733C2.66699 26.44 5.56033 29.3333 10.4137 29.3333H21.5737C26.427 29.3333 29.3203 26.44 29.3203 21.5866V10.4133C29.3337 5.55996 26.4403 2.66663 21.587 2.66663ZM21.0137 21.0133C20.9337 22.1466 20.8403 23.56 18.2803 23.56H13.7203C11.1737 23.56 11.067 22.1466 10.987 21.0133L10.5737 15.7333C10.547 15.3866 10.667 15.0533 10.8937 14.8C11.1203 14.5466 11.4537 14.4133 11.787 14.4133H20.2137C20.547 14.4133 20.8803 14.56 21.107 14.8C21.3337 15.0533 21.4537 15.3866 21.427 15.72L21.0137 21.0133ZM22.4003 13.0933C22.3737 13.0933 22.347 13.0933 22.3203 13.0933C20.9337 12.96 19.667 12.8666 18.4537 12.8133C16.827 12.7333 15.2003 12.7066 13.5603 12.7733C12.7603 12.8133 11.947 12.8666 11.147 12.9466L9.69366 13.0933C9.66699 13.0933 9.62699 13.0933 9.60033 13.0933C9.13366 13.0933 8.73366 12.7466 8.69366 12.2666C8.64033 11.7733 9.01366 11.32 9.50699 11.28L10.9603 11.1333C11.3207 11.0998 11.6758 11.0715 12.0323 11.0485C12.4026 11.0246 12.7114 10.7525 12.7737 10.3866C12.8803 9.71996 13.0803 8.43996 15.0803 8.43996H16.9337C18.947 8.43996 19.147 9.75996 19.2403 10.4C19.3026 10.7739 19.6164 11.0538 19.9947 11.078C20.7916 11.1288 21.6138 11.1962 22.4937 11.28C23.0003 11.3333 23.3603 11.7733 23.3203 12.28C23.267 12.7466 22.867 13.0933 22.4003 13.0933Z" fill="#2A00D3"/>
</svg>
