<svg width="28" height="28" viewBox="0 0 28 28" fill="none" xmlns="http://www.w3.org/2000/svg">
<rect width="28" height="28" rx="10" fill="url(#paint0_linear_208_1217)"/>
<path d="M22.3087 19.275C22.3087 19.575 22.242 19.8833 22.1003 20.1833C21.9587 20.4833 21.7753 20.7667 21.5337 21.0333C21.1253 21.4833 20.6753 21.8083 20.167 22.0167C19.667 22.225 19.1253 22.3333 18.542 22.3333C17.692 22.3333 16.7837 22.1333 15.8253 21.725C14.867 21.3167 13.9087 20.7667 12.9587 20.075C12.0003 19.375 11.092 18.6 10.2253 17.7417C9.36699 16.875 8.59199 15.9667 7.90032 15.0167C7.21699 14.0667 6.66699 13.1167 6.26699 12.175C5.86699 11.225 5.66699 10.3167 5.66699 9.45C5.66699 8.88333 5.76699 8.34166 5.96699 7.84166C6.16699 7.33333 6.48366 6.86666 6.92533 6.45C7.45866 5.925 8.04199 5.66666 8.65866 5.66666C8.89199 5.66666 9.12532 5.71666 9.33366 5.81666C9.55032 5.91666 9.74199 6.06666 9.89199 6.28333L11.8253 9.00833C11.9753 9.21666 12.0837 9.40833 12.1587 9.59166C12.2337 9.76666 12.2753 9.94166 12.2753 10.1C12.2753 10.3 12.217 10.5 12.1003 10.6917C11.992 10.8833 11.8337 11.0833 11.6337 11.2833L11.0003 11.9417C10.9087 12.0333 10.867 12.1417 10.867 12.275C10.867 12.3417 10.8753 12.4 10.892 12.4667C10.917 12.5333 10.942 12.5833 10.9587 12.6333C11.1087 12.9083 11.367 13.2667 11.7337 13.7C12.1087 14.1333 12.5087 14.575 12.942 15.0167C13.392 15.4583 13.8253 15.8667 14.267 16.2417C14.7003 16.6083 15.0587 16.8583 15.342 17.0083C15.3837 17.025 15.4337 17.05 15.492 17.075C15.5587 17.1 15.6253 17.1083 15.7003 17.1083C15.842 17.1083 15.9503 17.0583 16.042 16.9667L16.6753 16.3417C16.8837 16.1333 17.0837 15.975 17.2753 15.875C17.467 15.7583 17.6587 15.7 17.867 15.7C18.0253 15.7 18.192 15.7333 18.3753 15.8083C18.5587 15.8833 18.7503 15.9917 18.9587 16.1333L21.717 18.0917C21.9337 18.2417 22.0837 18.4167 22.1753 18.625C22.2587 18.8333 22.3087 19.0417 22.3087 19.275Z" fill="#FAFAFA"/>
<defs>
<linearGradient id="paint0_linear_208_1217" x1="5.2154e-08" y1="14" x2="28" y2="14" gradientUnits="userSpaceOnUse">
<stop stop-color="#107F8C"/>
<stop offset="1" stop-color="#31C2A7"/>
</linearGradient>
</defs>
</svg>
