<svg width="42" height="102" viewBox="0 0 42 102" fill="none" xmlns="http://www.w3.org/2000/svg">
<path d="M4.16011 1.23733C4.29118 0.700821 3.96251 0.159645 3.42601 0.0285721C2.8895 -0.102501 2.34832 0.226166 2.21725 0.762672L3.18868 1L4.16011 1.23733ZM38.9637 101L39.922 101.286C40.1283 100.594 40.3182 99.9137 40.4923 99.2437L39.5244 98.9923L38.5566 98.7408C38.3887 99.3871 38.2051 100.045 38.0055 100.714L38.9637 101ZM40.3902 95.028L41.3752 95.2003C41.6244 93.7762 41.7962 92.4026 41.8957 91.0756L40.8985 91.0009L39.9013 90.9261C39.807 92.1844 39.6436 93.4928 39.4052 94.8556L40.3902 95.028ZM40.9707 86.9449L41.9698 86.9025C41.9086 85.4589 41.7553 84.0748 41.5183 82.7438L40.5338 82.919L39.5493 83.0942C39.7703 84.3359 39.9141 85.6312 39.9716 86.9873L40.9707 86.9449ZM39.5409 78.9866L40.4904 78.673C40.0436 77.3202 39.5072 76.0271 38.8943 74.7846L37.9975 75.227L37.1007 75.6694C37.6746 76.833 38.1751 78.0401 38.5913 79.3003L39.5409 78.9866ZM35.9755 71.7055L36.8116 71.1569C36.0515 69.9983 35.2277 68.8823 34.3542 67.7995L33.5759 68.4274L32.7976 69.0553C33.6354 70.0938 34.4196 71.1569 35.1394 72.254L35.9755 71.7055ZM30.9059 65.3646L31.6369 64.6823C30.7065 63.6855 29.7407 62.7095 28.7519 61.7463L28.0541 62.4627L27.3564 63.179C28.3281 64.1256 29.2709 65.0784 30.1748 66.0469L30.9059 65.3646ZM25.1015 59.6684L25.7808 58.9346C24.7904 58.0176 23.7853 57.101 22.7818 56.1823L22.1065 56.9198L21.4312 57.6574C22.4386 58.5797 23.437 59.4902 24.4221 60.4022L25.1015 59.6684ZM19.1203 54.1585L19.805 53.4297C18.8255 52.5094 17.8546 51.5772 16.9009 50.6251L16.1943 51.3327L15.4878 52.0404C16.4596 53.0107 17.4458 53.9574 18.4356 54.8873L19.1203 54.1585ZM13.383 48.398L14.1222 47.7245C13.2255 46.7402 12.3551 45.73 11.5195 44.6866L10.7389 45.3117L9.95836 45.9368C10.8238 47.0174 11.7222 48.0599 12.6438 49.0714L13.383 48.398ZM8.32086 42.0445L9.14806 41.4825C8.40885 40.3944 7.71088 39.2679 7.06213 38.0967L6.18736 38.5812L5.31258 39.0658C5.99265 40.2935 6.72275 41.4715 7.49367 42.6064L8.32086 42.0445ZM4.39585 34.9371L5.31414 34.5411C4.80213 33.3536 4.33995 32.1199 3.93445 30.8347L2.98079 31.1355L2.02712 31.4364C2.4534 32.7876 2.93934 34.0846 3.47757 35.333L4.39585 34.9371ZM1.95474 27.2099L2.9335 27.0049C2.67034 25.7486 2.45869 24.4446 2.30389 23.0889L1.31034 23.2024L0.316799 23.3158C0.478535 24.7322 0.699978 26.0973 0.97598 27.4149L1.95474 27.2099ZM1.02277 19.1513L2.02233 19.1217C1.98426 17.8357 1.99437 16.5059 2.05645 15.1294L1.05747 15.0844L0.0584816 15.0393C-0.0057677 16.464 -0.0163826 17.8436 0.023211 19.1809L1.02277 19.1513ZM1.37797 11.0158L2.37185 11.1262C2.51456 9.84182 2.69985 8.51947 2.93024 7.15726L1.94425 6.99049L0.958249 6.82373C0.721766 8.22193 0.53114 9.58187 0.384082 10.9054L1.37797 11.0158ZM2.71617 3.0338L3.69279 3.24878C3.83843 2.58716 3.99412 1.91674 4.16011 1.23733L3.18868 1L2.21725 0.762672C2.0477 1.45665 1.88855 2.14197 1.73955 2.81881L2.71617 3.0338ZM4.16011 1.23733C4.29118 0.700821 3.96251 0.159645 3.42601 0.0285721C2.8895 -0.102501 2.34832 0.226166 2.21725 0.762672L3.18868 1L4.16011 1.23733ZM38.9637 101L39.922 101.286C40.1283 100.594 40.3182 99.9137 40.4923 99.2437L39.5244 98.9923L38.5566 98.7408C38.3887 99.3871 38.2051 100.045 38.0055 100.714L38.9637 101ZM40.3902 95.028L41.3752 95.2003C41.6244 93.7762 41.7962 92.4026 41.8957 91.0756L40.8985 91.0009L39.9013 90.9261C39.807 92.1844 39.6436 93.4928 39.4052 94.8556L40.3902 95.028ZM40.9707 86.9449L41.9698 86.9025C41.9086 85.4589 41.7553 84.0748 41.5183 82.7438L40.5338 82.919L39.5493 83.0942C39.7703 84.3359 39.9141 85.6312 39.9716 86.9873L40.9707 86.9449ZM39.5409 78.9866L40.4904 78.673C40.0436 77.3202 39.5072 76.0271 38.8943 74.7846L37.9975 75.227L37.1007 75.6694C37.6746 76.833 38.1751 78.0401 38.5913 79.3003L39.5409 78.9866ZM35.9755 71.7055L36.8116 71.1569C36.0515 69.9983 35.2277 68.8823 34.3542 67.7995L33.5759 68.4274L32.7976 69.0553C33.6354 70.0938 34.4196 71.1569 35.1394 72.254L35.9755 71.7055ZM30.9059 65.3646L31.6369 64.6823C30.7065 63.6855 29.7407 62.7095 28.7519 61.7463L28.0541 62.4627L27.3564 63.179C28.3281 64.1256 29.2709 65.0784 30.1748 66.0469L30.9059 65.3646ZM25.1015 59.6684L25.7808 58.9346C24.7904 58.0176 23.7853 57.101 22.7818 56.1823L22.1065 56.9198L21.4312 57.6574C22.4386 58.5797 23.437 59.4902 24.4221 60.4022L25.1015 59.6684ZM19.1203 54.1585L19.805 53.4297C18.8255 52.5094 17.8546 51.5772 16.9009 50.6251L16.1943 51.3327L15.4878 52.0404C16.4596 53.0107 17.4458 53.9574 18.4356 54.8873L19.1203 54.1585ZM13.383 48.398L14.1222 47.7245C13.2255 46.7402 12.3551 45.73 11.5195 44.6866L10.7389 45.3117L9.95836 45.9368C10.8238 47.0174 11.7222 48.0599 12.6438 49.0714L13.383 48.398ZM8.32086 42.0445L9.14806 41.4825C8.40885 40.3944 7.71088 39.2679 7.06213 38.0967L6.18736 38.5812L5.31258 39.0658C5.99265 40.2935 6.72275 41.4715 7.49367 42.6064L8.32086 42.0445ZM4.39585 34.9371L5.31414 34.5411C4.80213 33.3536 4.33995 32.1199 3.93445 30.8347L2.98079 31.1355L2.02712 31.4364C2.4534 32.7876 2.93934 34.0846 3.47757 35.333L4.39585 34.9371ZM1.95474 27.2099L2.9335 27.0049C2.67034 25.7486 2.45869 24.4446 2.30389 23.0889L1.31034 23.2024L0.316799 23.3158C0.478535 24.7322 0.699978 26.0973 0.97598 27.4149L1.95474 27.2099ZM1.02277 19.1513L2.02233 19.1217C1.98426 17.8357 1.99437 16.5059 2.05645 15.1294L1.05747 15.0844L0.0584816 15.0393C-0.0057677 16.464 -0.0163826 17.8436 0.023211 19.1809L1.02277 19.1513ZM1.37797 11.0158L2.37185 11.1262C2.51456 9.84182 2.69985 8.51947 2.93024 7.15726L1.94425 6.99049L0.958249 6.82373C0.721766 8.22193 0.53114 9.58187 0.384082 10.9054L1.37797 11.0158ZM2.71617 3.0338L3.69279 3.24878C3.83843 2.58716 3.99412 1.91674 4.16011 1.23733L3.18868 1L2.21725 0.762672C2.0477 1.45665 1.88855 2.14197 1.73955 2.81881L2.71617 3.0338Z" fill="url(#paint0_linear_160_465)"/>
<defs>
<linearGradient id="paint0_linear_160_465" x1="1" y1="51" x2="41" y2="51" gradientUnits="userSpaceOnUse">
<stop stop-color="#44747F"/>
<stop offset="1" stop-color="#6ABAA2"/>
</linearGradient>
</defs>
</svg>
