<svg width="264" height="64" viewBox="0 0 264 64" fill="none" xmlns="http://www.w3.org/2000/svg">
<path d="M262.031 5.38021C262.577 5.45922 263.085 5.08015 263.164 4.53354C263.243 3.98694 262.863 3.47978 262.317 3.40078L262.174 4.3905L262.031 5.38021ZM0.173828 59.8418L3.48538e-05 60.8266C0.695864 60.9494 1.38724 61.0684 2.07421 61.1836L2.23962 60.1974L2.40503 59.2112C1.7237 59.0969 1.03792 58.9789 0.347621 58.857L0.173828 59.8418ZM6.29185 60.8411L6.14369 61.83C7.48288 62.0307 8.80492 62.2165 10.1103 62.388L10.2405 61.3965L10.3707 60.4051C9.07757 60.2352 7.76747 60.051 6.44 59.8521L6.29185 60.8411ZM14.3068 61.8903L14.1962 62.8841C15.571 63.0371 16.9268 63.1736 18.2641 63.2941L18.3539 62.2982L18.4436 61.3022C17.1204 61.183 15.7785 61.0479 14.4174 60.8964L14.3068 61.8903ZM22.3247 62.6127L22.2568 63.6104C23.6601 63.706 25.0427 63.7834 26.4051 63.8432L26.449 62.8442L26.4928 61.8451C25.1467 61.7861 23.7802 61.7095 22.3927 61.615L22.3247 62.6127ZM30.4517 62.9704L30.4328 63.9703C31.8263 63.9967 33.1983 64.0041 34.5496 63.9932L34.5416 62.9932L34.5335 61.9933C33.2005 62.004 31.8465 61.9967 30.4707 61.9706L30.4517 62.9704ZM38.5842 62.9039L38.6205 63.9033C40.001 63.853 41.3593 63.7831 42.6966 63.6943L42.6303 62.6965L42.564 61.6987C41.2469 61.7862 39.9085 61.8551 38.5478 61.9046L38.5842 62.9039ZM46.6801 62.3636L46.7779 63.3588C48.149 63.2241 49.4974 63.069 50.8244 62.8943L50.694 61.9029L50.5635 60.9114C49.2584 61.0832 47.9317 61.2358 46.5823 61.3684L46.6801 62.3636ZM54.7159 61.3035L54.8804 62.2899C56.2403 62.0631 57.5773 61.8154 58.8929 61.5479L58.6936 60.568L58.4944 59.588C57.2019 59.8508 55.888 60.0942 54.5514 60.3171L54.7159 61.3035ZM62.654 59.6881L62.8886 60.6602C64.2308 60.3363 65.5506 59.9916 66.8495 59.6274L66.5795 58.6645L66.3095 57.7016C65.0339 58.0593 63.7377 58.3979 62.4194 58.716L62.654 59.6881ZM70.4512 57.5022L70.7561 58.4546C72.0718 58.0334 73.3665 57.5922 74.6418 57.1325L74.3027 56.1917L73.9636 55.251C72.7105 55.7027 71.4386 56.1361 70.1463 56.5498L70.4512 57.5022ZM78.0728 54.7578L78.4444 55.6862C79.7244 55.1739 80.9858 54.6434 82.2305 54.0963L81.828 53.1808L81.4256 52.2654C80.2006 52.8038 78.9599 53.3257 77.7012 53.8294L78.0728 54.7578ZM85.5084 51.4935L85.939 52.396C87.1737 51.8068 88.3931 51.2022 89.5995 50.5837L89.1433 49.6938L88.6871 48.8039C87.4967 49.4142 86.2943 50.0104 85.0777 50.5909L85.5084 51.4935ZM92.7291 47.7963L93.2078 48.6742C94.4029 48.0226 95.5869 47.3586 96.7619 46.684L96.264 45.8168L95.7661 44.9496C94.6028 45.6175 93.4316 46.2743 92.2504 46.9183L92.7291 47.7963ZM99.7643 43.7627L100.278 44.6207C101.442 43.9234 102.6 43.2172 103.753 42.5038L103.227 41.6534L102.701 40.803C101.555 41.512 100.406 42.2132 99.2505 42.9048L99.7643 43.7627ZM106.665 39.4991L107.2 40.3439C108.342 39.6205 109.482 38.8916 110.622 38.159L110.081 37.3178L109.541 36.4766C108.403 37.2075 107.267 37.9339 106.13 38.6543L106.665 39.4991ZM113.493 35.1168L114.036 35.9565C115.167 35.2249 116.3 34.4917 117.438 33.7577L116.896 32.9173L116.354 32.077C115.215 32.8118 114.081 33.5459 112.95 34.277L113.493 35.1168ZM120.309 30.7266L120.847 31.5696C121.982 30.8455 123.123 30.1226 124.273 29.4024L123.742 28.555L123.211 27.7075C122.056 28.4312 120.91 29.1571 119.771 29.8837L120.309 30.7266ZM127.183 26.4258L127.704 27.2794C128.852 26.5791 130.009 25.883 131.179 25.1925L130.671 24.3314L130.162 23.4702C128.983 24.1661 127.817 24.8673 126.662 25.5722L127.183 26.4258ZM134.17 22.3054L134.664 23.1753C135.827 22.5154 137.004 21.8622 138.197 21.2171L137.721 20.3376L137.245 19.4581C136.04 20.1099 134.852 20.7695 133.677 21.4355L134.17 22.3054ZM141.309 18.4463L141.765 19.3361C142.95 18.7286 144.15 18.13 145.368 17.5414L144.933 16.641L144.498 15.7406C143.265 16.3364 142.051 16.9421 140.853 17.5565L141.309 18.4463ZM148.619 14.916L149.032 15.8271C150.238 15.2812 151.462 14.7457 152.706 14.2217L152.318 13.3002L151.929 12.3786C150.669 12.9096 149.429 13.4521 148.207 14.005L148.619 14.916ZM156.102 11.7659L156.465 12.6976C157.693 12.2191 158.94 11.752 160.208 11.2974L159.87 10.3561L159.533 9.4148C158.248 9.87561 156.983 10.349 155.739 10.8341L156.102 11.7659ZM163.741 9.02867L164.052 9.97902C165.301 9.57011 166.569 9.17342 167.859 8.7898L167.573 7.83132L167.288 6.87285C165.981 7.2617 164.696 7.66381 163.43 8.07833L163.741 9.02867ZM171.511 6.71844L171.77 7.68438C173.039 7.34447 174.328 7.01717 175.638 6.70321L175.405 5.73075L175.172 4.75829C173.845 5.07637 172.539 5.40802 171.253 5.75249L171.511 6.71844ZM179.385 4.83212L179.593 5.81036C180.884 5.53659 182.195 5.27563 183.527 5.02813L183.344 4.04496L183.161 3.06179C181.813 3.31236 180.485 3.5766 179.178 3.85387L179.385 4.83212ZM187.339 3.35346L187.497 4.34081C188.815 4.12922 190.152 3.9306 191.511 3.74551L191.376 2.75466L191.241 1.76382C189.867 1.95104 188.514 2.15199 187.18 2.36611L187.339 3.35346ZM195.357 2.25798L195.47 3.2516C196.809 3.0997 198.168 2.9607 199.547 2.83511L199.456 1.83923L199.366 0.843348C197.972 0.970272 196.599 1.11077 195.245 1.26435L195.357 2.25798ZM203.44 1.51797L203.51 2.5155C204.836 2.42218 206.18 2.34098 207.542 2.27231L207.492 1.27357L207.442 0.274841C206.066 0.344172 204.709 0.426173 203.369 0.520442L203.44 1.51797ZM211.597 1.10666L211.628 2.10618C212.933 2.06558 214.255 2.03623 215.594 2.01843L215.58 1.01852L215.567 0.018608C214.216 0.0365578 212.883 0.0661776 211.566 0.107142L211.597 1.10666ZM219.667 1.00008L219.663 2.00008C221.001 2.00559 222.355 2.02239 223.727 2.05076L223.747 1.05098L223.768 0.0511892C222.385 0.022589 221.02 0.00565696 219.671 9.32217e-05L219.667 1.00008ZM227.739 1.16464L227.703 2.16399C229.044 2.21247 230.401 2.27178 231.775 2.34218L231.826 1.34349L231.878 0.344796C230.494 0.273889 229.127 0.214142 227.775 0.165294L227.739 1.16464ZM235.912 1.58254L235.846 2.58039C237.151 2.66607 238.47 2.76154 239.804 2.86699L239.883 1.8701L239.962 0.873214C238.619 0.767065 237.291 0.670959 235.977 0.584687L235.912 1.58254ZM243.942 2.21777L243.85 3.21355C245.209 3.33882 246.584 3.47424 247.973 3.62001L248.077 2.62547L248.181 1.63093C246.784 1.48429 245.402 1.34805 244.034 1.22199L243.942 2.21777ZM252.005 3.06054L251.889 4.05382C253.207 4.2075 254.539 4.3703 255.885 4.54241L256.012 3.55049L256.138 2.55857C254.786 2.38553 253.446 2.22182 252.12 2.06727L252.005 3.06054ZM260.099 4.09631L259.962 5.08678C260.648 5.18222 261.338 5.28002 262.031 5.38021L262.174 4.3905L262.317 3.40078C261.62 3.30008 260.927 3.20178 260.237 3.10584L260.099 4.09631ZM262.031 5.38021C262.577 5.45922 263.085 5.08015 263.164 4.53354C263.243 3.98694 262.863 3.47978 262.317 3.40078L262.174 4.3905L262.031 5.38021ZM0.173828 59.8418L3.48538e-05 60.8266C0.695864 60.9494 1.38724 61.0684 2.07421 61.1836L2.23962 60.1974L2.40503 59.2112C1.7237 59.0969 1.03792 58.9789 0.347621 58.857L0.173828 59.8418ZM6.29185 60.8411L6.14369 61.83C7.48288 62.0307 8.80492 62.2165 10.1103 62.388L10.2405 61.3965L10.3707 60.4051C9.07757 60.2352 7.76747 60.051 6.44 59.8521L6.29185 60.8411ZM14.3068 61.8903L14.1962 62.8841C15.571 63.0371 16.9268 63.1736 18.2641 63.2941L18.3539 62.2982L18.4436 61.3022C17.1204 61.183 15.7785 61.0479 14.4174 60.8964L14.3068 61.8903ZM22.3247 62.6127L22.2568 63.6104C23.6601 63.706 25.0427 63.7834 26.4051 63.8432L26.449 62.8442L26.4928 61.8451C25.1467 61.7861 23.7802 61.7095 22.3927 61.615L22.3247 62.6127ZM30.4517 62.9704L30.4328 63.9703C31.8263 63.9967 33.1983 64.0041 34.5496 63.9932L34.5416 62.9932L34.5335 61.9933C33.2005 62.004 31.8465 61.9967 30.4707 61.9706L30.4517 62.9704ZM38.5842 62.9039L38.6205 63.9033C40.001 63.853 41.3593 63.7831 42.6966 63.6943L42.6303 62.6965L42.564 61.6987C41.2469 61.7862 39.9085 61.8551 38.5478 61.9046L38.5842 62.9039ZM46.6801 62.3636L46.7779 63.3588C48.149 63.2241 49.4974 63.069 50.8244 62.8943L50.694 61.9029L50.5635 60.9114C49.2584 61.0832 47.9317 61.2358 46.5823 61.3684L46.6801 62.3636ZM54.7159 61.3035L54.8804 62.2899C56.2403 62.0631 57.5773 61.8154 58.8929 61.5479L58.6936 60.568L58.4944 59.588C57.2019 59.8508 55.888 60.0942 54.5514 60.3171L54.7159 61.3035ZM62.654 59.6881L62.8886 60.6602C64.2308 60.3363 65.5506 59.9916 66.8495 59.6274L66.5795 58.6645L66.3095 57.7016C65.0339 58.0593 63.7377 58.3979 62.4194 58.716L62.654 59.6881ZM70.4512 57.5022L70.7561 58.4546C72.0718 58.0334 73.3665 57.5922 74.6418 57.1325L74.3027 56.1917L73.9636 55.251C72.7105 55.7027 71.4386 56.1361 70.1463 56.5498L70.4512 57.5022ZM78.0728 54.7578L78.4444 55.6862C79.7244 55.1739 80.9858 54.6434 82.2305 54.0963L81.828 53.1808L81.4256 52.2654C80.2006 52.8038 78.9599 53.3257 77.7012 53.8294L78.0728 54.7578ZM85.5084 51.4935L85.939 52.396C87.1737 51.8068 88.3931 51.2022 89.5995 50.5837L89.1433 49.6938L88.6871 48.8039C87.4967 49.4142 86.2943 50.0104 85.0777 50.5909L85.5084 51.4935ZM92.7291 47.7963L93.2078 48.6742C94.4029 48.0226 95.5869 47.3586 96.7619 46.684L96.264 45.8168L95.7661 44.9496C94.6028 45.6175 93.4316 46.2743 92.2504 46.9183L92.7291 47.7963ZM99.7643 43.7627L100.278 44.6207C101.442 43.9234 102.6 43.2172 103.753 42.5038L103.227 41.6534L102.701 40.803C101.555 41.512 100.406 42.2132 99.2505 42.9048L99.7643 43.7627ZM106.665 39.4991L107.2 40.3439C108.342 39.6205 109.482 38.8916 110.622 38.159L110.081 37.3178L109.541 36.4766C108.403 37.2075 107.267 37.9339 106.13 38.6543L106.665 39.4991ZM113.493 35.1168L114.036 35.9565C115.167 35.2249 116.3 34.4917 117.438 33.7577L116.896 32.9173L116.354 32.077C115.215 32.8118 114.081 33.5459 112.95 34.277L113.493 35.1168ZM120.309 30.7266L120.847 31.5696C121.982 30.8455 123.123 30.1226 124.273 29.4024L123.742 28.555L123.211 27.7075C122.056 28.4312 120.91 29.1571 119.771 29.8837L120.309 30.7266ZM127.183 26.4258L127.704 27.2794C128.852 26.5791 130.009 25.883 131.179 25.1925L130.671 24.3314L130.162 23.4702C128.983 24.1661 127.817 24.8673 126.662 25.5722L127.183 26.4258ZM134.17 22.3054L134.664 23.1753C135.827 22.5154 137.004 21.8622 138.197 21.2171L137.721 20.3376L137.245 19.4581C136.04 20.1099 134.852 20.7695 133.677 21.4355L134.17 22.3054ZM141.309 18.4463L141.765 19.3361C142.95 18.7286 144.15 18.13 145.368 17.5414L144.933 16.641L144.498 15.7406C143.265 16.3364 142.051 16.9421 140.853 17.5565L141.309 18.4463ZM148.619 14.916L149.032 15.8271C150.238 15.2812 151.462 14.7457 152.706 14.2217L152.318 13.3002L151.929 12.3786C150.669 12.9096 149.429 13.4521 148.207 14.005L148.619 14.916ZM156.102 11.7659L156.465 12.6976C157.693 12.2191 158.94 11.752 160.208 11.2974L159.87 10.3561L159.533 9.4148C158.248 9.87561 156.983 10.349 155.739 10.8341L156.102 11.7659ZM163.741 9.02867L164.052 9.97902C165.301 9.57011 166.569 9.17342 167.859 8.7898L167.573 7.83132L167.288 6.87285C165.981 7.2617 164.696 7.66381 163.43 8.07833L163.741 9.02867ZM171.511 6.71844L171.77 7.68438C173.039 7.34447 174.328 7.01717 175.638 6.70321L175.405 5.73075L175.172 4.75829C173.845 5.07637 172.539 5.40802 171.253 5.75249L171.511 6.71844ZM179.385 4.83212L179.593 5.81036C180.884 5.53659 182.195 5.27563 183.527 5.02813L183.344 4.04496L183.161 3.06179C181.813 3.31236 180.485 3.5766 179.178 3.85387L179.385 4.83212ZM187.339 3.35346L187.497 4.34081C188.815 4.12922 190.152 3.9306 191.511 3.74551L191.376 2.75466L191.241 1.76382C189.867 1.95104 188.514 2.15199 187.18 2.36611L187.339 3.35346ZM195.357 2.25798L195.47 3.2516C196.809 3.0997 198.168 2.9607 199.547 2.83511L199.456 1.83923L199.366 0.843348C197.972 0.970272 196.599 1.11077 195.245 1.26435L195.357 2.25798ZM203.44 1.51797L203.51 2.5155C204.836 2.42218 206.18 2.34098 207.542 2.27231L207.492 1.27357L207.442 0.274841C206.066 0.344172 204.709 0.426173 203.369 0.520442L203.44 1.51797ZM211.597 1.10666L211.628 2.10618C212.933 2.06558 214.255 2.03623 215.594 2.01843L215.58 1.01852L215.567 0.018608C214.216 0.0365578 212.883 0.0661776 211.566 0.107142L211.597 1.10666ZM219.667 1.00008L219.663 2.00008C221.001 2.00559 222.355 2.02239 223.727 2.05076L223.747 1.05098L223.768 0.0511892C222.385 0.022589 221.02 0.00565696 219.671 9.32217e-05L219.667 1.00008ZM227.739 1.16464L227.703 2.16399C229.044 2.21247 230.401 2.27178 231.775 2.34218L231.826 1.34349L231.878 0.344796C230.494 0.273889 229.127 0.214142 227.775 0.165294L227.739 1.16464ZM235.912 1.58254L235.846 2.58039C237.151 2.66607 238.47 2.76154 239.804 2.86699L239.883 1.8701L239.962 0.873214C238.619 0.767065 237.291 0.670959 235.977 0.584687L235.912 1.58254ZM243.942 2.21777L243.85 3.21355C245.209 3.33882 246.584 3.47424 247.973 3.62001L248.077 2.62547L248.181 1.63093C246.784 1.48429 245.402 1.34805 244.034 1.22199L243.942 2.21777ZM252.005 3.06054L251.889 4.05382C253.207 4.2075 254.539 4.3703 255.885 4.54241L256.012 3.55049L256.138 2.55857C254.786 2.38553 253.446 2.22182 252.12 2.06727L252.005 3.06054ZM260.099 4.09631L259.962 5.08678C260.648 5.18222 261.338 5.28002 262.031 5.38021L262.174 4.3905L262.317 3.40078C261.62 3.30008 260.927 3.20178 260.237 3.10584L260.099 4.09631Z" fill="url(#paint0_linear_208_864)"/>
<defs>
<linearGradient id="paint0_linear_208_864" x1="0.173829" y1="31.9981" x2="262.174" y2="31.9981" gradientUnits="userSpaceOnUse">
<stop stop-color="#107F8C"/>
<stop offset="1" stop-color="#31C2A7"/>
</linearGradient>
</defs>
</svg>
