<svg width="44" height="44" viewBox="0 0 44 44" fill="none" xmlns="http://www.w3.org/2000/svg">
<rect width="44" height="44" rx="10" fill="#FAFAFA"/>
<g clip-path="url(#clip0_208_1120)">
<path d="M31.9951 31.9999V31.999H32.0001V24.664C32.0001 21.0757 31.2276 18.3115 27.0326 18.3115C25.0159 18.3115 23.6626 19.4182 23.1101 20.4674H23.0517V18.6465H19.0742V31.999H23.2159V25.3874C23.2159 23.6465 23.5459 21.9632 25.7017 21.9632C27.8259 21.9632 27.8576 23.9499 27.8576 25.499V31.9999H31.9951Z" fill="#0E110D"/>
<path d="M12.3301 18.6475H16.4767V32H12.3301V18.6475Z" fill="#0E110D"/>
<path d="M14.4017 12C13.0758 12 12 13.0758 12 14.4017C12 15.7275 13.0758 16.8258 14.4017 16.8258C15.7275 16.8258 16.8033 15.7275 16.8033 14.4017C16.8025 13.0758 15.7267 12 14.4017 12V12Z" fill="#0E110D"/>
</g>
<defs>
<clipPath id="clip0_208_1120">
<rect width="20" height="20" fill="white" transform="translate(12 12)"/>
</clipPath>
</defs>
</svg>
