<svg width="44" height="44" viewBox="0 0 44 44" fill="none" xmlns="http://www.w3.org/2000/svg">
<rect width="44" height="44" rx="10" fill="#FAFAFA"/>
<path d="M30.3087 27.2748C30.3087 27.5748 30.242 27.8832 30.1003 28.1832C29.9587 28.4832 29.7753 28.7665 29.5337 29.0332C29.1253 29.4832 28.6753 29.8082 28.167 30.0165C27.667 30.2248 27.1253 30.3332 26.542 30.3332C25.692 30.3332 24.7837 30.1332 23.8253 29.7248C22.867 29.3165 21.9087 28.7665 20.9587 28.0748C20.0003 27.3748 19.092 26.5998 18.2253 25.7415C17.367 24.8748 16.592 23.9665 15.9003 23.0165C15.217 22.0665 14.667 21.1165 14.267 20.1748C13.867 19.2248 13.667 18.3165 13.667 17.4498C13.667 16.8832 13.767 16.3415 13.967 15.8415C14.167 15.3332 14.4837 14.8665 14.9253 14.4498C15.4587 13.9248 16.042 13.6665 16.6587 13.6665C16.892 13.6665 17.1253 13.7165 17.3337 13.8165C17.5503 13.9165 17.742 14.0665 17.892 14.2832L19.8253 17.0082C19.9753 17.2165 20.0837 17.4082 20.1587 17.5915C20.2337 17.7665 20.2753 17.9415 20.2753 18.0998C20.2753 18.2998 20.217 18.4998 20.1003 18.6915C19.992 18.8832 19.8337 19.0832 19.6337 19.2832L19.0003 19.9415C18.9087 20.0332 18.867 20.1415 18.867 20.2748C18.867 20.3415 18.8753 20.3998 18.892 20.4665C18.917 20.5332 18.942 20.5832 18.9587 20.6332C19.1087 20.9082 19.367 21.2665 19.7337 21.6998C20.1087 22.1332 20.5087 22.5748 20.942 23.0165C21.392 23.4582 21.8253 23.8665 22.267 24.2415C22.7003 24.6082 23.0587 24.8582 23.342 25.0082C23.3837 25.0248 23.4337 25.0498 23.492 25.0748C23.5587 25.0998 23.6253 25.1082 23.7003 25.1082C23.842 25.1082 23.9503 25.0582 24.042 24.9665L24.6753 24.3415C24.8837 24.1332 25.0837 23.9748 25.2753 23.8748C25.467 23.7582 25.6587 23.6998 25.867 23.6998C26.0253 23.6998 26.192 23.7332 26.3753 23.8082C26.5587 23.8832 26.7503 23.9915 26.9587 24.1332L29.717 26.0915C29.9337 26.2415 30.0837 26.4165 30.1753 26.6248C30.2587 26.8332 30.3087 27.0415 30.3087 27.2748Z" fill="#0E110D"/>
</svg>
